<?xml version="1.0" encoding="utf-8" standalone="no"?>
<!DOCTYPE svg PUBLIC "-//W3C//DTD SVG 1.1//EN"
  "http://www.w3.org/Graphics/SVG/1.1/DTD/svg11.dtd">
<svg xmlns:xlink="http://www.w3.org/1999/xlink" width="619.093812pt" height="331.37136pt" viewBox="0 0 619.093812 331.37136" xmlns="http://www.w3.org/2000/svg" version="1.1">
 <metadata>
  <rdf:RDF xmlns:dc="http://purl.org/dc/elements/1.1/" xmlns:cc="http://creativecommons.org/ns#" xmlns:rdf="http://www.w3.org/1999/02/22-rdf-syntax-ns#">
   <cc:Work>
    <dc:type rdf:resource="http://purl.org/dc/dcmitype/StillImage"/>
    <dc:date>2026-07-15T04:16:17.289231</dc:date>
    <dc:format>image/svg+xml</dc:format>
    <dc:creator>
     <cc:Agent>
      <dc:title>Matplotlib v3.10.8, https://matplotlib.org/</dc:title>
     </cc:Agent>
    </dc:creator>
   </cc:Work>
  </rdf:RDF>
 </metadata>
 <defs>
  <style type="text/css">*{stroke-linejoin: round; stroke-linecap: butt}</style>
 </defs>
 <g id="figure_1">
  <g id="patch_1">
   <path d="M 0 331.37136 
L 619.093812 331.37136 
L 619.093812 0 
L 0 0 
z
" style="fill: #ffffff"/>
  </g>
  <g id="axes_1">
   <g id="patch_2">
    <path d="M 107.317813 247.104 
L 611.893812 247.104 
L 611.893812 7.2 
L 107.317813 7.2 
z
" style="fill: #ffffff"/>
   </g>
   <g id="LineCollection_1">
    <path d="M 374.524873 18.104727 
L 369.346442 18.104727 
" clip-path="url(#pfe833f5e50)" style="fill: none; stroke: #8b8b8b; stroke-width: 1.6"/>
    <path d="M 582.998015 49.261091 
L 597.197424 49.261091 
" clip-path="url(#pfe833f5e50)" style="fill: none; stroke: #8b8b8b; stroke-width: 1.6"/>
    <path d="M 597.197424 80.417455 
L 597.197424 80.417455 
" clip-path="url(#pfe833f5e50)" style="fill: none; stroke: #8b8b8b; stroke-width: 1.6"/>
    <path d="M 374.524873 111.573818 
L 352.257618 111.573818 
" clip-path="url(#pfe833f5e50)" style="fill: none; stroke: #8b8b8b; stroke-width: 1.6"/>
    <path d="M 597.197424 142.730182 
L 597.197424 142.730182 
" clip-path="url(#pfe833f5e50)" style="fill: none; stroke: #8b8b8b; stroke-width: 1.6"/>
    <path d="M 597.197424 173.886545 
L 597.197424 173.886545 
" clip-path="url(#pfe833f5e50)" style="fill: none; stroke: #8b8b8b; stroke-width: 1.6"/>
    <path d="M 569.204304 205.042909 
L 554.599197 205.042909 
" clip-path="url(#pfe833f5e50)" style="fill: none; stroke: #8b8b8b; stroke-width: 1.6"/>
    <path d="M 569.204304 236.199273 
L 575.898311 236.199273 
" clip-path="url(#pfe833f5e50)" style="fill: none; stroke: #8b8b8b; stroke-width: 1.6"/>
   </g>
   <g id="matplotlib.axis_1">
    <g id="xtick_1">
     <g id="line2d_1">
      <path d="M 107.317813 247.104 
L 107.317813 7.2 
" clip-path="url(#pfe833f5e50)" style="fill: none; stroke: #b0b0b0; stroke-opacity: 0.25; stroke-width: 0.8; stroke-linecap: square"/>
     </g>
     <g id="line2d_2">
      <defs>
       <path id="mb131c36854" d="M 0 0 
L 0 3.5 
" style="stroke: #000000; stroke-width: 0.8"/>
      </defs>
      <g>
       <use xlink:href="#mb131c36854" x="107.317813" y="247.104" style="stroke: #000000; stroke-width: 0.8"/>
      </g>
     </g>
     <g id="text_1">
      <!-- 0.0 -->
      <g transform="translate(100.442813 261.736969) scale(0.11 -0.11)">
       <defs>
        <path id="Tinos-30" d="M 2956 2113 
Q 2956 -63 1581 -63 
Q 919 -63 581 493 
Q 244 1050 244 2113 
Q 244 3153 581 3704 
Q 919 4256 1606 4256 
Q 2269 4256 2612 3711 
Q 2956 3166 2956 2113 
z
M 2381 2113 
Q 2381 3119 2190 3562 
Q 2000 4006 1581 4006 
Q 1175 4006 997 3587 
Q 819 3169 819 2113 
Q 819 1050 1000 617 
Q 1181 184 1581 184 
Q 1994 184 2187 639 
Q 2381 1094 2381 2113 
z
" transform="scale(0.015625)"/>
        <path id="Tinos-2e" d="M 1178 288 
Q 1178 134 1070 21 
Q 963 -91 800 -91 
Q 638 -91 530 21 
Q 422 134 422 288 
Q 422 447 531 556 
Q 641 666 800 666 
Q 959 666 1068 556 
Q 1178 447 1178 288 
z
" transform="scale(0.015625)"/>
       </defs>
       <use xlink:href="#Tinos-30"/>
       <use xlink:href="#Tinos-2e" transform="translate(50 0)"/>
       <use xlink:href="#Tinos-30" transform="translate(75 0)"/>
      </g>
     </g>
    </g>
    <g id="xtick_2">
     <g id="line2d_3">
      <path d="M 205.293735 247.104 
L 205.293735 7.2 
" clip-path="url(#pfe833f5e50)" style="fill: none; stroke: #b0b0b0; stroke-opacity: 0.25; stroke-width: 0.8; stroke-linecap: square"/>
     </g>
     <g id="line2d_4">
      <g>
       <use xlink:href="#mb131c36854" x="205.293735" y="247.104" style="stroke: #000000; stroke-width: 0.8"/>
      </g>
     </g>
     <g id="text_2">
      <!-- 0.2 -->
      <g transform="translate(198.418735 261.736969) scale(0.11 -0.11)">
       <defs>
        <path id="Tinos-32" d="M 2847 0 
L 281 0 
L 281 459 
L 863 988 
Q 1422 1478 1684 1781 
Q 1947 2084 2061 2406 
Q 2175 2728 2175 3144 
Q 2175 3550 1990 3762 
Q 1806 3975 1388 3975 
Q 1222 3975 1047 3929 
Q 872 3884 738 3809 
L 628 3297 
L 422 3297 
L 422 4103 
Q 991 4238 1388 4238 
Q 2075 4238 2420 3952 
Q 2766 3666 2766 3144 
Q 2766 2794 2630 2483 
Q 2494 2172 2212 1864 
Q 1931 1556 1281 1003 
Q 1003 766 691 481 
L 2847 481 
L 2847 0 
z
" transform="scale(0.015625)"/>
       </defs>
       <use xlink:href="#Tinos-30"/>
       <use xlink:href="#Tinos-2e" transform="translate(50 0)"/>
       <use xlink:href="#Tinos-32" transform="translate(75 0)"/>
      </g>
     </g>
    </g>
    <g id="xtick_3">
     <g id="line2d_5">
      <path d="M 303.269657 247.104 
L 303.269657 7.2 
" clip-path="url(#pfe833f5e50)" style="fill: none; stroke: #b0b0b0; stroke-opacity: 0.25; stroke-width: 0.8; stroke-linecap: square"/>
     </g>
     <g id="line2d_6">
      <g>
       <use xlink:href="#mb131c36854" x="303.269657" y="247.104" style="stroke: #000000; stroke-width: 0.8"/>
      </g>
     </g>
     <g id="text_3">
      <!-- 0.4 -->
      <g transform="translate(296.394657 261.736969) scale(0.11 -0.11)">
       <defs>
        <path id="Tinos-34" d="M 2531 922 
L 2531 0 
L 1994 0 
L 1994 922 
L 125 922 
L 125 1338 
L 2172 4213 
L 2531 4213 
L 2531 1369 
L 3100 1369 
L 3100 922 
L 2531 922 
z
M 1994 3478 
L 1978 3478 
L 478 1369 
L 1994 1369 
L 1994 3478 
z
" transform="scale(0.015625)"/>
       </defs>
       <use xlink:href="#Tinos-30"/>
       <use xlink:href="#Tinos-2e" transform="translate(50 0)"/>
       <use xlink:href="#Tinos-34" transform="translate(75 0)"/>
      </g>
     </g>
    </g>
    <g id="xtick_4">
     <g id="line2d_7">
      <path d="M 401.245579 247.104 
L 401.245579 7.2 
" clip-path="url(#pfe833f5e50)" style="fill: none; stroke: #b0b0b0; stroke-opacity: 0.25; stroke-width: 0.8; stroke-linecap: square"/>
     </g>
     <g id="line2d_8">
      <g>
       <use xlink:href="#mb131c36854" x="401.245579" y="247.104" style="stroke: #000000; stroke-width: 0.8"/>
      </g>
     </g>
     <g id="text_4">
      <!-- 0.6 -->
      <g transform="translate(394.370579 261.736969) scale(0.11 -0.11)">
       <defs>
        <path id="Tinos-36" d="M 3009 1300 
Q 3009 647 2679 292 
Q 2350 -63 1728 -63 
Q 1022 -63 648 487 
Q 275 1038 275 2069 
Q 275 2744 472 3234 
Q 669 3725 1023 3981 
Q 1378 4238 1844 4238 
Q 2300 4238 2753 4128 
L 2753 3406 
L 2547 3406 
L 2438 3834 
Q 2334 3891 2159 3933 
Q 1984 3975 1844 3975 
Q 1388 3975 1133 3533 
Q 878 3091 853 2241 
Q 1363 2509 1875 2509 
Q 2428 2509 2718 2198 
Q 3009 1888 3009 1300 
z
M 1716 184 
Q 2094 184 2262 429 
Q 2431 675 2431 1241 
Q 2431 1753 2270 1981 
Q 2109 2209 1759 2209 
Q 1331 2209 850 2053 
Q 850 1100 1065 642 
Q 1281 184 1716 184 
z
" transform="scale(0.015625)"/>
       </defs>
       <use xlink:href="#Tinos-30"/>
       <use xlink:href="#Tinos-2e" transform="translate(50 0)"/>
       <use xlink:href="#Tinos-36" transform="translate(75 0)"/>
      </g>
     </g>
    </g>
    <g id="xtick_5">
     <g id="line2d_9">
      <path d="M 499.221502 247.104 
L 499.221502 7.2 
" clip-path="url(#pfe833f5e50)" style="fill: none; stroke: #b0b0b0; stroke-opacity: 0.25; stroke-width: 0.8; stroke-linecap: square"/>
     </g>
     <g id="line2d_10">
      <g>
       <use xlink:href="#mb131c36854" x="499.221502" y="247.104" style="stroke: #000000; stroke-width: 0.8"/>
      </g>
     </g>
     <g id="text_5">
      <!-- 0.8 -->
      <g transform="translate(492.346502 261.736969) scale(0.11 -0.11)">
       <defs>
        <path id="Tinos-38" d="M 2828 3169 
Q 2828 2825 2661 2586 
Q 2494 2347 2209 2222 
Q 2566 2091 2761 1811 
Q 2956 1531 2956 1131 
Q 2956 538 2622 237 
Q 2288 -63 1581 -63 
Q 244 -63 244 1131 
Q 244 1547 444 1820 
Q 644 2094 984 2222 
Q 713 2347 542 2584 
Q 372 2822 372 3169 
Q 372 3688 689 3972 
Q 1006 4256 1606 4256 
Q 2188 4256 2508 3973 
Q 2828 3691 2828 3169 
z
M 2394 1131 
Q 2394 1631 2198 1856 
Q 2003 2081 1581 2081 
Q 1169 2081 987 1867 
Q 806 1653 806 1131 
Q 806 603 990 393 
Q 1175 184 1581 184 
Q 1997 184 2195 401 
Q 2394 619 2394 1131 
z
M 2266 3169 
Q 2266 3600 2097 3803 
Q 1928 4006 1588 4006 
Q 1256 4006 1095 3809 
Q 934 3613 934 3169 
Q 934 2734 1090 2545 
Q 1247 2356 1588 2356 
Q 1938 2356 2102 2548 
Q 2266 2741 2266 3169 
z
" transform="scale(0.015625)"/>
       </defs>
       <use xlink:href="#Tinos-30"/>
       <use xlink:href="#Tinos-2e" transform="translate(50 0)"/>
       <use xlink:href="#Tinos-38" transform="translate(75 0)"/>
      </g>
     </g>
    </g>
    <g id="xtick_6">
     <g id="line2d_11">
      <path d="M 597.197424 247.104 
L 597.197424 7.2 
" clip-path="url(#pfe833f5e50)" style="fill: none; stroke: #b0b0b0; stroke-opacity: 0.25; stroke-width: 0.8; stroke-linecap: square"/>
     </g>
     <g id="line2d_12">
      <g>
       <use xlink:href="#mb131c36854" x="597.197424" y="247.104" style="stroke: #000000; stroke-width: 0.8"/>
      </g>
     </g>
     <g id="text_6">
      <!-- 1.0 -->
      <g transform="translate(590.322424 261.736969) scale(0.11 -0.11)">
       <defs>
        <path id="Tinos-31" d="M 1959 250 
L 2816 166 
L 2816 0 
L 563 0 
L 563 166 
L 1422 250 
L 1422 3669 
L 575 3366 
L 575 3531 
L 1797 4225 
L 1959 4225 
L 1959 250 
z
" transform="scale(0.015625)"/>
       </defs>
       <use xlink:href="#Tinos-31"/>
       <use xlink:href="#Tinos-2e" transform="translate(50 0)"/>
       <use xlink:href="#Tinos-30" transform="translate(75 0)"/>
      </g>
     </g>
    </g>
    <g id="text_7">
     <!-- Jaccard overlap with the primary model -->
     <g transform="translate(272.095656 275.712594) scale(0.11 -0.11)">
      <defs>
       <path id="Tinos-4a" d="M 1281 3944 
L 744 4025 
L 744 4191 
L 2356 4191 
L 2356 4025 
L 1881 3944 
L 1881 1350 
Q 1881 931 1753 617 
Q 1625 303 1364 120 
Q 1103 -63 781 -63 
Q 381 -63 134 31 
L 134 794 
L 341 794 
L 434 359 
Q 494 288 603 247 
Q 713 206 844 206 
Q 1281 206 1281 800 
L 1281 3944 
z
" transform="scale(0.015625)"/>
       <path id="Tinos-61" d="M 1453 3003 
Q 1934 3003 2161 2806 
Q 2388 2609 2388 2203 
L 2388 219 
L 2753 141 
L 2753 0 
L 1947 0 
L 1888 294 
Q 1531 -63 978 -63 
Q 225 -63 225 813 
Q 225 1106 339 1298 
Q 453 1491 703 1592 
Q 953 1694 1428 1703 
L 1869 1716 
L 1869 2175 
Q 1869 2478 1758 2622 
Q 1647 2766 1416 2766 
Q 1103 2766 844 2619 
L 738 2253 
L 563 2253 
L 563 2894 
Q 1069 3003 1453 3003 
z
M 1869 1497 
L 1459 1484 
Q 1041 1469 892 1322 
Q 744 1175 744 831 
Q 744 281 1191 281 
Q 1403 281 1558 329 
Q 1713 378 1869 453 
L 1869 1497 
z
" transform="scale(0.015625)"/>
       <path id="Tinos-63" d="M 2644 178 
Q 2491 66 2222 1 
Q 1953 -63 1672 -63 
Q 244 -63 244 1491 
Q 244 2225 608 2620 
Q 972 3016 1650 3016 
Q 2072 3016 2572 2919 
L 2572 2100 
L 2400 2100 
L 2266 2619 
Q 2006 2766 1644 2766 
Q 806 2766 806 1491 
Q 806 828 1061 545 
Q 1316 263 1850 263 
Q 2306 263 2644 366 
L 2644 178 
z
" transform="scale(0.015625)"/>
       <path id="Tinos-72" d="M 2075 3016 
L 2075 2222 
L 1941 2222 
L 1759 2566 
Q 1603 2566 1389 2523 
Q 1175 2481 1019 2413 
L 1019 219 
L 1522 141 
L 1522 0 
L 128 0 
L 128 141 
L 500 219 
L 500 2719 
L 128 2797 
L 128 2938 
L 984 2938 
L 1013 2572 
Q 1200 2728 1520 2872 
Q 1841 3016 2028 3016 
L 2075 3016 
z
" transform="scale(0.015625)"/>
       <path id="Tinos-64" d="M 2259 219 
Q 1906 -63 1434 -63 
Q 231 -63 231 1441 
Q 231 2213 572 2614 
Q 913 3016 1575 3016 
Q 1913 3016 2259 2944 
Q 2241 3047 2241 3463 
L 2241 4225 
L 1747 4300 
L 1747 4441 
L 2759 4441 
L 2759 219 
L 3122 141 
L 3122 0 
L 2297 0 
L 2259 219 
z
M 794 1441 
Q 794 847 994 555 
Q 1194 263 1606 263 
Q 1959 263 2241 384 
L 2241 2706 
Q 1963 2759 1606 2759 
Q 794 2759 794 1441 
z
" transform="scale(0.015625)"/>
       <path id="Tinos-20" transform="scale(0.015625)"/>
       <path id="Tinos-6f" d="M 2956 1484 
Q 2956 -63 1581 -63 
Q 919 -63 581 334 
Q 244 731 244 1484 
Q 244 2228 581 2622 
Q 919 3016 1606 3016 
Q 2275 3016 2615 2630 
Q 2956 2244 2956 1484 
z
M 2394 1484 
Q 2394 2159 2197 2462 
Q 2000 2766 1581 2766 
Q 1172 2766 989 2475 
Q 806 2184 806 1484 
Q 806 775 992 479 
Q 1178 184 1581 184 
Q 1994 184 2194 490 
Q 2394 797 2394 1484 
z
" transform="scale(0.015625)"/>
       <path id="Tinos-76" d="M 1741 -63 
L 1509 -63 
L 300 2719 
L 0 2797 
L 0 2938 
L 1369 2938 
L 1369 2797 
L 903 2713 
L 1759 684 
L 2578 2719 
L 2113 2797 
L 2113 2938 
L 3200 2938 
L 3200 2797 
L 2919 2731 
L 1741 -63 
z
" transform="scale(0.015625)"/>
       <path id="Tinos-65" d="M 813 1478 
L 813 1422 
Q 813 991 908 752 
Q 1003 513 1201 388 
Q 1400 263 1722 263 
Q 1891 263 2122 291 
Q 2353 319 2503 353 
L 2503 178 
Q 2353 81 2095 9 
Q 1838 -63 1569 -63 
Q 884 -63 567 306 
Q 250 675 250 1491 
Q 250 2259 572 2637 
Q 894 3016 1491 3016 
Q 2619 3016 2619 1734 
L 2619 1478 
L 813 1478 
z
M 1491 2766 
Q 1166 2766 992 2503 
Q 819 2241 819 1728 
L 2075 1728 
Q 2075 2288 1931 2527 
Q 1788 2766 1491 2766 
z
" transform="scale(0.015625)"/>
       <path id="Tinos-6c" d="M 1147 219 
L 1650 141 
L 1650 0 
L 128 0 
L 128 141 
L 628 219 
L 628 4225 
L 128 4300 
L 128 4441 
L 1147 4441 
L 1147 219 
z
" transform="scale(0.015625)"/>
       <path id="Tinos-70" d="M 475 2719 
L 141 2797 
L 141 2938 
L 966 2938 
L 972 2766 
Q 1103 2878 1323 2947 
Q 1544 3016 1772 3016 
Q 2334 3016 2642 2625 
Q 2950 2234 2950 1503 
Q 2950 756 2614 346 
Q 2278 -63 1644 -63 
Q 1291 -63 972 6 
Q 991 -219 991 -347 
L 991 -1141 
L 1503 -1216 
L 1503 -1363 
L 103 -1363 
L 103 -1216 
L 475 -1141 
L 475 2719 
z
M 2388 1503 
Q 2388 2103 2192 2395 
Q 1997 2688 1600 2688 
Q 1234 2688 991 2584 
L 991 238 
Q 1269 184 1600 184 
Q 2388 184 2388 1503 
z
" transform="scale(0.015625)"/>
       <path id="Tinos-77" d="M 3284 -63 
L 3041 -63 
L 2316 1875 
L 1600 -63 
L 1369 -63 
L 353 2719 
L 6 2797 
L 6 2938 
L 1403 2938 
L 1403 2797 
L 916 2713 
L 1613 728 
L 2322 2644 
L 2584 2644 
L 3291 716 
L 3956 2719 
L 3475 2797 
L 3475 2938 
L 4594 2938 
L 4594 2797 
L 4269 2731 
L 3284 -63 
z
" transform="scale(0.015625)"/>
       <path id="Tinos-69" d="M 1153 219 
L 1656 141 
L 1656 0 
L 134 0 
L 134 141 
L 634 219 
L 634 2719 
L 219 2797 
L 219 2938 
L 1153 2938 
L 1153 219 
z
M 1184 3897 
Q 1184 3759 1084 3659 
Q 984 3559 844 3559 
Q 706 3559 606 3659 
Q 506 3759 506 3897 
Q 506 4038 606 4138 
Q 706 4238 844 4238 
Q 984 4238 1084 4138 
Q 1184 4038 1184 3897 
z
" transform="scale(0.015625)"/>
       <path id="Tinos-74" d="M 1044 -63 
Q 744 -63 595 115 
Q 447 294 447 616 
L 447 2675 
L 63 2675 
L 63 2816 
L 453 2938 
L 769 3603 
L 966 3603 
L 966 2938 
L 1638 2938 
L 1638 2675 
L 966 2675 
L 966 672 
Q 966 469 1058 366 
Q 1150 263 1300 263 
Q 1481 263 1741 313 
L 1741 109 
Q 1631 34 1425 -14 
Q 1219 -63 1044 -63 
z
" transform="scale(0.015625)"/>
       <path id="Tinos-68" d="M 1019 3169 
Q 1019 2844 997 2700 
Q 1222 2828 1508 2922 
Q 1794 3016 1991 3016 
Q 2372 3016 2565 2794 
Q 2759 2572 2759 2150 
L 2759 219 
L 3116 141 
L 3116 0 
L 1850 0 
L 1850 141 
L 2241 219 
L 2241 2113 
Q 2241 2650 1722 2650 
Q 1428 2650 1019 2559 
L 1019 219 
L 1416 141 
L 1416 0 
L 128 0 
L 128 141 
L 500 219 
L 500 4225 
L 63 4300 
L 63 4441 
L 1019 4441 
L 1019 3169 
z
" transform="scale(0.015625)"/>
       <path id="Tinos-6d" d="M 1019 2700 
Q 1253 2834 1515 2925 
Q 1778 3016 1978 3016 
Q 2194 3016 2376 2934 
Q 2559 2853 2650 2675 
Q 2891 2809 3214 2912 
Q 3538 3016 3750 3016 
Q 4500 3016 4500 2150 
L 4500 219 
L 4878 141 
L 4878 0 
L 3544 0 
L 3544 141 
L 3981 219 
L 3981 2094 
Q 3981 2631 3481 2631 
Q 3400 2631 3292 2618 
Q 3184 2606 3076 2590 
Q 2969 2575 2870 2554 
Q 2772 2534 2706 2522 
Q 2759 2353 2759 2150 
L 2759 219 
L 3200 141 
L 3200 0 
L 1806 0 
L 1806 141 
L 2241 219 
L 2241 2094 
Q 2241 2353 2108 2492 
Q 1975 2631 1709 2631 
Q 1434 2631 1025 2541 
L 1025 219 
L 1466 141 
L 1466 0 
L 134 0 
L 134 141 
L 506 219 
L 506 2719 
L 134 2797 
L 134 2938 
L 994 2938 
L 1019 2700 
z
" transform="scale(0.015625)"/>
       <path id="Tinos-79" d="M 622 -1381 
Q 378 -1381 141 -1325 
L 141 -691 
L 288 -691 
L 391 -991 
Q 488 -1063 659 -1063 
Q 822 -1063 959 -969 
Q 1097 -875 1211 -690 
Q 1325 -506 1497 -31 
L 378 2719 
L 78 2797 
L 78 2938 
L 1441 2938 
L 1441 2797 
L 978 2713 
L 1772 659 
L 2541 2719 
L 2081 2797 
L 2081 2938 
L 3175 2938 
L 3175 2797 
L 2869 2731 
L 1722 -184 
Q 1519 -700 1369 -925 
Q 1219 -1150 1037 -1265 
Q 856 -1381 622 -1381 
z
" transform="scale(0.015625)"/>
      </defs>
      <use xlink:href="#Tinos-4a"/>
      <use xlink:href="#Tinos-61" transform="translate(38.916016 0)"/>
      <use xlink:href="#Tinos-63" transform="translate(83.300781 0)"/>
      <use xlink:href="#Tinos-63" transform="translate(127.685547 0)"/>
      <use xlink:href="#Tinos-61" transform="translate(172.070312 0)"/>
      <use xlink:href="#Tinos-72" transform="translate(216.455078 0)"/>
      <use xlink:href="#Tinos-64" transform="translate(249.755859 0)"/>
      <use xlink:href="#Tinos-20" transform="translate(299.755859 0)"/>
      <use xlink:href="#Tinos-6f" transform="translate(324.755859 0)"/>
      <use xlink:href="#Tinos-76" transform="translate(374.755859 0)"/>
      <use xlink:href="#Tinos-65" transform="translate(424.755859 0)"/>
      <use xlink:href="#Tinos-72" transform="translate(469.140625 0)"/>
      <use xlink:href="#Tinos-6c" transform="translate(502.441406 0)"/>
      <use xlink:href="#Tinos-61" transform="translate(530.224609 0)"/>
      <use xlink:href="#Tinos-70" transform="translate(574.609375 0)"/>
      <use xlink:href="#Tinos-20" transform="translate(624.609375 0)"/>
      <use xlink:href="#Tinos-77" transform="translate(649.609375 0)"/>
      <use xlink:href="#Tinos-69" transform="translate(721.826172 0)"/>
      <use xlink:href="#Tinos-74" transform="translate(749.609375 0)"/>
      <use xlink:href="#Tinos-68" transform="translate(777.392578 0)"/>
      <use xlink:href="#Tinos-20" transform="translate(827.392578 0)"/>
      <use xlink:href="#Tinos-74" transform="translate(852.392578 0)"/>
      <use xlink:href="#Tinos-68" transform="translate(880.175781 0)"/>
      <use xlink:href="#Tinos-65" transform="translate(930.175781 0)"/>
      <use xlink:href="#Tinos-20" transform="translate(974.560547 0)"/>
      <use xlink:href="#Tinos-70" transform="translate(999.560547 0)"/>
      <use xlink:href="#Tinos-72" transform="translate(1049.560547 0)"/>
      <use xlink:href="#Tinos-69" transform="translate(1082.861328 0)"/>
      <use xlink:href="#Tinos-6d" transform="translate(1110.644531 0)"/>
      <use xlink:href="#Tinos-61" transform="translate(1188.427734 0)"/>
      <use xlink:href="#Tinos-72" transform="translate(1232.8125 0)"/>
      <use xlink:href="#Tinos-79" transform="translate(1266.113281 0)"/>
      <use xlink:href="#Tinos-20" transform="translate(1316.113281 0)"/>
      <use xlink:href="#Tinos-6d" transform="translate(1341.113281 0)"/>
      <use xlink:href="#Tinos-6f" transform="translate(1418.896484 0)"/>
      <use xlink:href="#Tinos-64" transform="translate(1468.896484 0)"/>
      <use xlink:href="#Tinos-65" transform="translate(1518.896484 0)"/>
      <use xlink:href="#Tinos-6c" transform="translate(1563.28125 0)"/>
     </g>
    </g>
   </g>
   <g id="matplotlib.axis_2">
    <g id="ytick_1">
     <g id="line2d_13"/>
     <g id="text_8">
      <!-- LOWESS (frac=0.35) -->
      <g transform="translate(7.2 21.977071) scale(0.11 -0.11)">
       <defs>
        <path id="Tinos-4c" d="M 1972 4025 
L 1325 3944 
L 1325 269 
L 2150 269 
Q 2816 269 3128 331 
L 3322 1203 
L 3525 1203 
L 3469 0 
L 184 0 
L 184 166 
L 722 250 
L 722 3944 
L 184 4025 
L 184 4191 
L 1972 4191 
L 1972 4025 
z
" transform="scale(0.015625)"/>
        <path id="Tinos-4f" d="M 263 2100 
Q 263 4238 2309 4238 
Q 3322 4238 3840 3695 
Q 4359 3153 4359 2100 
Q 4359 1031 3834 484 
Q 3309 -63 2309 -63 
Q 1313 -63 788 482 
Q 263 1028 263 2100 
z
M 916 2100 
Q 916 1091 1253 637 
Q 1591 184 2309 184 
Q 3025 184 3365 637 
Q 3706 1091 3706 2100 
Q 3706 3103 3367 3545 
Q 3028 3988 2309 3988 
Q 1588 3988 1252 3545 
Q 916 3103 916 2100 
z
" transform="scale(0.015625)"/>
        <path id="Tinos-57" d="M 4294 -97 
L 4128 -97 
L 3041 2791 
L 1925 -97 
L 1759 -97 
L 372 3944 
L 6 4025 
L 6 4191 
L 1606 4191 
L 1606 4025 
L 991 3944 
L 1988 991 
L 3116 3897 
L 3256 3897 
L 4344 991 
L 5294 3944 
L 4641 4025 
L 4641 4191 
L 6028 4191 
L 6028 4025 
L 5663 3944 
L 4294 -97 
z
" transform="scale(0.015625)"/>
        <path id="Tinos-45" d="M 184 166 
L 722 250 
L 722 3944 
L 184 4025 
L 184 4191 
L 3328 4191 
L 3328 3188 
L 3122 3188 
L 3022 3866 
Q 2672 3909 2009 3909 
L 1325 3909 
L 1325 2272 
L 2456 2272 
L 2553 2772 
L 2753 2772 
L 2753 1484 
L 2553 1484 
L 2456 1991 
L 1325 1991 
L 1325 281 
L 2150 281 
Q 2956 281 3206 331 
L 3384 1106 
L 3591 1106 
L 3531 0 
L 184 0 
L 184 166 
z
" transform="scale(0.015625)"/>
        <path id="Tinos-53" d="M 434 1128 
L 638 1128 
L 747 563 
Q 863 416 1145 303 
Q 1428 191 1703 191 
Q 2141 191 2386 414 
Q 2631 638 2631 1031 
Q 2631 1256 2536 1403 
Q 2441 1550 2286 1651 
Q 2131 1753 1934 1823 
Q 1738 1894 1530 1966 
Q 1322 2038 1125 2125 
Q 928 2213 773 2347 
Q 619 2481 523 2679 
Q 428 2878 428 3169 
Q 428 3669 803 3953 
Q 1178 4238 1844 4238 
Q 2350 4238 2944 4103 
L 2944 3231 
L 2741 3231 
L 2631 3744 
Q 2313 3975 1844 3975 
Q 1425 3975 1189 3804 
Q 953 3634 953 3334 
Q 953 3131 1048 2997 
Q 1144 2863 1298 2767 
Q 1453 2672 1651 2603 
Q 1850 2534 2058 2461 
Q 2266 2388 2464 2295 
Q 2663 2203 2817 2061 
Q 2972 1919 3067 1714 
Q 3163 1509 3163 1209 
Q 3163 603 2791 270 
Q 2419 -63 1719 -63 
Q 1381 -63 1040 -3 
Q 700 56 434 159 
L 434 1128 
z
" transform="scale(0.015625)"/>
        <path id="Tinos-28" d="M 884 1544 
Q 884 731 993 248 
Q 1103 -234 1337 -565 
Q 1572 -897 1925 -1100 
L 1925 -1363 
Q 1306 -1034 957 -645 
Q 609 -256 445 270 
Q 281 797 281 1544 
Q 281 2288 443 2811 
Q 606 3334 953 3721 
Q 1300 4109 1925 4441 
L 1925 4178 
Q 1544 3959 1319 3617 
Q 1094 3275 989 2819 
Q 884 2363 884 1544 
z
" transform="scale(0.015625)"/>
        <path id="Tinos-66" d="M 703 2675 
L 197 2675 
L 197 2828 
L 703 2950 
L 703 3156 
Q 703 3806 961 4156 
Q 1219 4506 1684 4506 
Q 1925 4506 2131 4447 
L 2131 3806 
L 1978 3806 
L 1838 4191 
Q 1731 4256 1581 4256 
Q 1384 4256 1303 4081 
Q 1222 3906 1222 3425 
L 1222 2938 
L 2003 2938 
L 2003 2675 
L 1222 2675 
L 1222 244 
L 1856 141 
L 1856 0 
L 269 0 
L 269 141 
L 703 244 
L 703 2675 
z
" transform="scale(0.015625)"/>
        <path id="Tinos-3d" d="M 3297 1644 
L 3297 1325 
L 319 1325 
L 319 1644 
L 3297 1644 
z
M 3297 2925 
L 3297 2606 
L 319 2606 
L 319 2925 
L 3297 2925 
z
" transform="scale(0.015625)"/>
        <path id="Tinos-33" d="M 2950 1141 
Q 2950 575 2562 256 
Q 2175 -63 1466 -63 
Q 872 -63 341 72 
L 306 953 
L 513 953 
L 653 366 
Q 775 297 998 247 
Q 1222 197 1416 197 
Q 1906 197 2140 422 
Q 2375 647 2375 1172 
Q 2375 1584 2159 1798 
Q 1944 2013 1491 2034 
L 1044 2059 
L 1044 2316 
L 1491 2344 
Q 1844 2363 2012 2563 
Q 2181 2763 2181 3169 
Q 2181 3591 1998 3783 
Q 1816 3975 1416 3975 
Q 1250 3975 1069 3929 
Q 888 3884 750 3809 
L 641 3297 
L 434 3297 
L 434 4103 
Q 744 4184 969 4211 
Q 1194 4238 1416 4238 
Q 2759 4238 2759 3206 
Q 2759 2772 2520 2514 
Q 2281 2256 1844 2194 
Q 2413 2128 2681 1867 
Q 2950 1606 2950 1141 
z
" transform="scale(0.015625)"/>
        <path id="Tinos-35" d="M 1516 2450 
Q 2241 2450 2595 2153 
Q 2950 1856 2950 1247 
Q 2950 616 2565 276 
Q 2181 -63 1466 -63 
Q 872 -63 406 72 
L 372 953 
L 578 953 
L 719 366 
Q 856 291 1048 244 
Q 1241 197 1416 197 
Q 1909 197 2142 430 
Q 2375 663 2375 1216 
Q 2375 1603 2275 1801 
Q 2175 2000 1956 2094 
Q 1738 2188 1369 2188 
Q 1084 2188 813 2113 
L 513 2113 
L 513 4191 
L 2638 4191 
L 2638 3713 
L 794 3713 
L 794 2375 
Q 1131 2450 1516 2450 
z
" transform="scale(0.015625)"/>
        <path id="Tinos-29" d="M 206 -1363 
L 206 -1100 
Q 559 -897 793 -564 
Q 1028 -231 1137 251 
Q 1247 734 1247 1544 
Q 1247 2363 1142 2819 
Q 1038 3275 813 3617 
Q 588 3959 206 4178 
L 206 4441 
Q 831 4106 1178 3720 
Q 1525 3334 1687 2811 
Q 1850 2288 1850 1544 
Q 1850 800 1687 273 
Q 1525 -253 1178 -640 
Q 831 -1028 206 -1363 
z
" transform="scale(0.015625)"/>
       </defs>
       <use xlink:href="#Tinos-4c"/>
       <use xlink:href="#Tinos-4f" transform="translate(61.083984 0)"/>
       <use xlink:href="#Tinos-57" transform="translate(133.300781 0)"/>
       <use xlink:href="#Tinos-45" transform="translate(227.685547 0)"/>
       <use xlink:href="#Tinos-53" transform="translate(288.769531 0)"/>
       <use xlink:href="#Tinos-53" transform="translate(344.384766 0)"/>
       <use xlink:href="#Tinos-20" transform="translate(400 0)"/>
       <use xlink:href="#Tinos-28" transform="translate(425 0)"/>
       <use xlink:href="#Tinos-66" transform="translate(458.300781 0)"/>
       <use xlink:href="#Tinos-72" transform="translate(491.601562 0)"/>
       <use xlink:href="#Tinos-61" transform="translate(524.902344 0)"/>
       <use xlink:href="#Tinos-63" transform="translate(569.287109 0)"/>
       <use xlink:href="#Tinos-3d" transform="translate(613.671875 0)"/>
       <use xlink:href="#Tinos-30" transform="translate(670.068359 0)"/>
       <use xlink:href="#Tinos-2e" transform="translate(720.068359 0)"/>
       <use xlink:href="#Tinos-33" transform="translate(745.068359 0)"/>
       <use xlink:href="#Tinos-35" transform="translate(795.068359 0)"/>
       <use xlink:href="#Tinos-29" transform="translate(845.068359 0)"/>
      </g>
     </g>
    </g>
    <g id="ytick_2">
     <g id="line2d_14"/>
     <g id="text_9">
      <!-- Quadratic polynomial -->
      <g transform="translate(7.593594 53.077575) scale(0.11 -0.11)">
       <defs>
        <path id="Tinos-51" d="M 263 2094 
Q 263 4238 2309 4238 
Q 3316 4238 3837 3695 
Q 4359 3153 4359 2094 
Q 4359 559 3250 103 
L 3406 -91 
Q 3681 -434 3875 -581 
Q 4069 -728 4256 -728 
L 4513 -716 
L 4513 -922 
Q 4441 -953 4242 -995 
Q 4044 -1038 3897 -1038 
Q 3675 -1038 3503 -964 
Q 3331 -891 3156 -730 
Q 2981 -569 2572 -50 
Q 2459 -63 2309 -63 
Q 1306 -63 784 485 
Q 263 1034 263 2094 
z
M 916 2094 
Q 916 1084 1253 634 
Q 1591 184 2309 184 
Q 3025 184 3365 631 
Q 3706 1078 3706 2094 
Q 3706 3103 3364 3545 
Q 3022 3988 2309 3988 
Q 1591 3988 1253 3542 
Q 916 3097 916 2094 
z
" transform="scale(0.015625)"/>
        <path id="Tinos-75" d="M 978 838 
Q 978 300 1478 300 
Q 1866 300 2203 397 
L 2203 2719 
L 1759 2797 
L 1759 2938 
L 2719 2938 
L 2719 219 
L 3091 141 
L 3091 0 
L 2234 0 
L 2209 238 
Q 1988 116 1697 26 
Q 1406 -63 1209 -63 
Q 459 -63 459 800 
L 459 2719 
L 84 2797 
L 84 2938 
L 978 2938 
L 978 838 
z
" transform="scale(0.015625)"/>
        <path id="Tinos-6e" d="M 1013 2700 
Q 1253 2838 1525 2927 
Q 1797 3016 1978 3016 
Q 2359 3016 2553 2794 
Q 2747 2572 2747 2150 
L 2747 219 
L 3103 141 
L 3103 0 
L 1838 0 
L 1838 141 
L 2228 219 
L 2228 2094 
Q 2228 2353 2101 2501 
Q 1975 2650 1709 2650 
Q 1428 2650 1019 2559 
L 1019 219 
L 1416 141 
L 1416 0 
L 147 0 
L 147 141 
L 500 219 
L 500 2719 
L 147 2797 
L 147 2938 
L 984 2938 
L 1013 2700 
z
" transform="scale(0.015625)"/>
       </defs>
       <use xlink:href="#Tinos-51"/>
       <use xlink:href="#Tinos-75" transform="translate(72.216797 0)"/>
       <use xlink:href="#Tinos-61" transform="translate(122.216797 0)"/>
       <use xlink:href="#Tinos-64" transform="translate(166.601562 0)"/>
       <use xlink:href="#Tinos-72" transform="translate(216.601562 0)"/>
       <use xlink:href="#Tinos-61" transform="translate(249.902344 0)"/>
       <use xlink:href="#Tinos-74" transform="translate(294.287109 0)"/>
       <use xlink:href="#Tinos-69" transform="translate(322.070312 0)"/>
       <use xlink:href="#Tinos-63" transform="translate(349.853516 0)"/>
       <use xlink:href="#Tinos-20" transform="translate(394.238281 0)"/>
       <use xlink:href="#Tinos-70" transform="translate(419.238281 0)"/>
       <use xlink:href="#Tinos-6f" transform="translate(469.238281 0)"/>
       <use xlink:href="#Tinos-6c" transform="translate(519.238281 0)"/>
       <use xlink:href="#Tinos-79" transform="translate(547.021484 0)"/>
       <use xlink:href="#Tinos-6e" transform="translate(597.021484 0)"/>
       <use xlink:href="#Tinos-6f" transform="translate(647.021484 0)"/>
       <use xlink:href="#Tinos-6d" transform="translate(697.021484 0)"/>
       <use xlink:href="#Tinos-69" transform="translate(774.804688 0)"/>
       <use xlink:href="#Tinos-61" transform="translate(802.587891 0)"/>
       <use xlink:href="#Tinos-6c" transform="translate(846.972656 0)"/>
      </g>
     </g>
    </g>
    <g id="ytick_3">
     <g id="line2d_15"/>
     <g id="text_10">
      <!-- Cubic polynomial -->
      <g transform="translate(24.684844 84.233939) scale(0.11 -0.11)">
       <defs>
        <path id="Tinos-43" d="M 2419 -63 
Q 1400 -63 831 492 
Q 263 1047 263 2047 
Q 263 3128 809 3683 
Q 1356 4238 2431 4238 
Q 3084 4238 3834 4078 
L 3853 3163 
L 3647 3163 
L 3553 3706 
Q 3334 3841 3045 3914 
Q 2756 3988 2456 3988 
Q 1653 3988 1284 3516 
Q 916 3044 916 2053 
Q 916 1141 1302 659 
Q 1688 178 2425 178 
Q 2781 178 3097 264 
Q 3413 350 3597 494 
L 3713 1119 
L 3916 1119 
L 3897 134 
Q 3209 -63 2419 -63 
z
" transform="scale(0.015625)"/>
        <path id="Tinos-62" d="M 428 4225 
L 0 4300 
L 0 4441 
L 947 4441 
L 947 3391 
Q 947 3222 928 2772 
Q 1241 3016 1716 3016 
Q 2316 3016 2636 2652 
Q 2956 2288 2956 1550 
Q 2956 759 2604 348 
Q 2253 -63 1588 -63 
Q 1319 -63 995 -3 
Q 672 56 428 153 
L 428 4225 
z
M 2394 1550 
Q 2394 2125 2194 2406 
Q 1994 2688 1575 2688 
Q 1391 2688 1209 2655 
Q 1028 2622 947 2584 
L 947 256 
Q 1209 206 1575 206 
Q 2006 206 2200 543 
Q 2394 881 2394 1550 
z
" transform="scale(0.015625)"/>
       </defs>
       <use xlink:href="#Tinos-43"/>
       <use xlink:href="#Tinos-75" transform="translate(66.699219 0)"/>
       <use xlink:href="#Tinos-62" transform="translate(116.699219 0)"/>
       <use xlink:href="#Tinos-69" transform="translate(166.699219 0)"/>
       <use xlink:href="#Tinos-63" transform="translate(194.482422 0)"/>
       <use xlink:href="#Tinos-20" transform="translate(238.867188 0)"/>
       <use xlink:href="#Tinos-70" transform="translate(263.867188 0)"/>
       <use xlink:href="#Tinos-6f" transform="translate(313.867188 0)"/>
       <use xlink:href="#Tinos-6c" transform="translate(363.867188 0)"/>
       <use xlink:href="#Tinos-79" transform="translate(391.650391 0)"/>
       <use xlink:href="#Tinos-6e" transform="translate(441.650391 0)"/>
       <use xlink:href="#Tinos-6f" transform="translate(491.650391 0)"/>
       <use xlink:href="#Tinos-6d" transform="translate(541.650391 0)"/>
       <use xlink:href="#Tinos-69" transform="translate(619.433594 0)"/>
       <use xlink:href="#Tinos-61" transform="translate(647.216797 0)"/>
       <use xlink:href="#Tinos-6c" transform="translate(691.601562 0)"/>
      </g>
     </g>
    </g>
    <g id="ytick_4">
     <g id="line2d_16"/>
     <g id="text_11">
      <!-- SDI-quintile median -->
      <g transform="translate(13.696875 115.390303) scale(0.11 -0.11)">
       <defs>
        <path id="Tinos-44" d="M 2088 4191 
Q 3247 4191 3806 3673 
Q 4366 3156 4366 2119 
Q 4366 1069 3827 528 
Q 3288 -13 2216 -13 
L 184 0 
L 184 166 
L 722 250 
L 722 3944 
L 184 4025 
L 184 4191 
L 2088 4191 
z
M 3713 2125 
Q 3713 3003 3239 3456 
Q 2766 3909 1888 3909 
L 1325 3909 
L 1325 294 
Q 1700 269 2216 269 
Q 2984 269 3348 722 
Q 3713 1175 3713 2125 
z
" transform="scale(0.015625)"/>
        <path id="Tinos-49" d="M 1369 250 
L 1906 166 
L 1906 0 
L 231 0 
L 231 166 
L 769 250 
L 769 3944 
L 231 4025 
L 231 4191 
L 1906 4191 
L 1906 4025 
L 1369 3944 
L 1369 250 
z
" transform="scale(0.015625)"/>
        <path id="Tinos-2d" d="M 238 1269 
L 238 1747 
L 1900 1747 
L 1900 1269 
L 238 1269 
z
" transform="scale(0.015625)"/>
        <path id="Tinos-71" d="M 2541 3078 
L 2759 3078 
L 2759 -1141 
L 3084 -1216 
L 3084 -1363 
L 1838 -1363 
L 1838 -1216 
L 2241 -1141 
L 2241 -325 
Q 2241 -22 2272 197 
Q 1938 -63 1434 -63 
Q 231 -63 231 1459 
Q 231 2213 570 2614 
Q 909 3016 1563 3016 
Q 1913 3016 2259 2944 
L 2541 3078 
z
M 794 1459 
Q 794 863 992 563 
Q 1191 263 1606 263 
Q 1791 263 1970 294 
Q 2150 325 2241 366 
L 2241 2706 
Q 1963 2759 1606 2759 
Q 794 2759 794 1459 
z
" transform="scale(0.015625)"/>
       </defs>
       <use xlink:href="#Tinos-53"/>
       <use xlink:href="#Tinos-44" transform="translate(55.615234 0)"/>
       <use xlink:href="#Tinos-49" transform="translate(127.832031 0)"/>
       <use xlink:href="#Tinos-2d" transform="translate(161.132812 0)"/>
       <use xlink:href="#Tinos-71" transform="translate(194.433594 0)"/>
       <use xlink:href="#Tinos-75" transform="translate(244.433594 0)"/>
       <use xlink:href="#Tinos-69" transform="translate(294.433594 0)"/>
       <use xlink:href="#Tinos-6e" transform="translate(322.216797 0)"/>
       <use xlink:href="#Tinos-74" transform="translate(372.216797 0)"/>
       <use xlink:href="#Tinos-69" transform="translate(400 0)"/>
       <use xlink:href="#Tinos-6c" transform="translate(427.783203 0)"/>
       <use xlink:href="#Tinos-65" transform="translate(455.566406 0)"/>
       <use xlink:href="#Tinos-20" transform="translate(499.951172 0)"/>
       <use xlink:href="#Tinos-6d" transform="translate(524.951172 0)"/>
       <use xlink:href="#Tinos-65" transform="translate(602.734375 0)"/>
       <use xlink:href="#Tinos-64" transform="translate(647.119141 0)"/>
       <use xlink:href="#Tinos-69" transform="translate(697.119141 0)"/>
       <use xlink:href="#Tinos-61" transform="translate(724.902344 0)"/>
       <use xlink:href="#Tinos-6e" transform="translate(769.287109 0)"/>
      </g>
     </g>
    </g>
    <g id="ytick_5">
     <g id="line2d_17"/>
     <g id="text_12">
      <!-- Spline df=3 -->
      <g transform="translate(52.090313 146.602526) scale(0.11 -0.11)">
       <use xlink:href="#Tinos-53"/>
       <use xlink:href="#Tinos-70" transform="translate(55.615234 0)"/>
       <use xlink:href="#Tinos-6c" transform="translate(105.615234 0)"/>
       <use xlink:href="#Tinos-69" transform="translate(133.398438 0)"/>
       <use xlink:href="#Tinos-6e" transform="translate(161.181641 0)"/>
       <use xlink:href="#Tinos-65" transform="translate(211.181641 0)"/>
       <use xlink:href="#Tinos-20" transform="translate(255.566406 0)"/>
       <use xlink:href="#Tinos-64" transform="translate(280.566406 0)"/>
       <use xlink:href="#Tinos-66" transform="translate(330.566406 0)"/>
       <use xlink:href="#Tinos-3d" transform="translate(363.867188 0)"/>
       <use xlink:href="#Tinos-33" transform="translate(420.263672 0)"/>
      </g>
     </g>
    </g>
    <g id="ytick_6">
     <g id="line2d_18"/>
     <g id="text_13">
      <!-- Spline df=4 -->
      <g transform="translate(52.090313 177.758889) scale(0.11 -0.11)">
       <use xlink:href="#Tinos-53"/>
       <use xlink:href="#Tinos-70" transform="translate(55.615234 0)"/>
       <use xlink:href="#Tinos-6c" transform="translate(105.615234 0)"/>
       <use xlink:href="#Tinos-69" transform="translate(133.398438 0)"/>
       <use xlink:href="#Tinos-6e" transform="translate(161.181641 0)"/>
       <use xlink:href="#Tinos-65" transform="translate(211.181641 0)"/>
       <use xlink:href="#Tinos-20" transform="translate(255.566406 0)"/>
       <use xlink:href="#Tinos-64" transform="translate(280.566406 0)"/>
       <use xlink:href="#Tinos-66" transform="translate(330.566406 0)"/>
       <use xlink:href="#Tinos-3d" transform="translate(363.867188 0)"/>
       <use xlink:href="#Tinos-34" transform="translate(420.263672 0)"/>
      </g>
     </g>
    </g>
    <g id="ytick_7">
     <g id="line2d_19"/>
     <g id="text_14">
      <!-- Spline df=5 -->
      <g transform="translate(52.090313 208.915253) scale(0.11 -0.11)">
       <use xlink:href="#Tinos-53"/>
       <use xlink:href="#Tinos-70" transform="translate(55.615234 0)"/>
       <use xlink:href="#Tinos-6c" transform="translate(105.615234 0)"/>
       <use xlink:href="#Tinos-69" transform="translate(133.398438 0)"/>
       <use xlink:href="#Tinos-6e" transform="translate(161.181641 0)"/>
       <use xlink:href="#Tinos-65" transform="translate(211.181641 0)"/>
       <use xlink:href="#Tinos-20" transform="translate(255.566406 0)"/>
       <use xlink:href="#Tinos-64" transform="translate(280.566406 0)"/>
       <use xlink:href="#Tinos-66" transform="translate(330.566406 0)"/>
       <use xlink:href="#Tinos-3d" transform="translate(363.867188 0)"/>
       <use xlink:href="#Tinos-35" transform="translate(420.263672 0)"/>
      </g>
     </g>
    </g>
    <g id="ytick_8">
     <g id="line2d_20"/>
     <g id="text_15">
      <!-- Spline df=6 -->
      <g transform="translate(52.090313 240.071616) scale(0.11 -0.11)">
       <use xlink:href="#Tinos-53"/>
       <use xlink:href="#Tinos-70" transform="translate(55.615234 0)"/>
       <use xlink:href="#Tinos-6c" transform="translate(105.615234 0)"/>
       <use xlink:href="#Tinos-69" transform="translate(133.398438 0)"/>
       <use xlink:href="#Tinos-6e" transform="translate(161.181641 0)"/>
       <use xlink:href="#Tinos-65" transform="translate(211.181641 0)"/>
       <use xlink:href="#Tinos-20" transform="translate(255.566406 0)"/>
       <use xlink:href="#Tinos-64" transform="translate(280.566406 0)"/>
       <use xlink:href="#Tinos-66" transform="translate(330.566406 0)"/>
       <use xlink:href="#Tinos-3d" transform="translate(363.867188 0)"/>
       <use xlink:href="#Tinos-36" transform="translate(420.263672 0)"/>
      </g>
     </g>
    </g>
   </g>
   <g id="patch_3">
    <path d="M 107.317813 247.104 
L 611.893812 247.104 
" style="fill: none; stroke: #000000; stroke-width: 0.8; stroke-linejoin: miter; stroke-linecap: square"/>
   </g>
   <g id="PathCollection_1">
    <defs>
     <path id="mbcf155939b" d="M 0 4.1833 
C 1.109424 4.1833 2.173559 3.742521 2.95804 2.95804 
C 3.742521 2.173559 4.1833 1.109424 4.1833 0 
C 4.1833 -1.109424 3.742521 -2.173559 2.95804 -2.95804 
C 2.173559 -3.742521 1.109424 -4.1833 0 -4.1833 
C -1.109424 -4.1833 -2.173559 -3.742521 -2.95804 -2.95804 
C -3.742521 -2.173559 -4.1833 -1.109424 -4.1833 0 
C -4.1833 1.109424 -3.742521 2.173559 -2.95804 2.95804 
C -2.173559 3.742521 -1.109424 4.1833 0 4.1833 
z
" style="stroke: #2e6db4"/>
    </defs>
    <g clip-path="url(#pfe833f5e50)">
     <use xlink:href="#mbcf155939b" x="374.524873" y="18.104727" style="fill: #2e6db4; stroke: #2e6db4"/>
     <use xlink:href="#mbcf155939b" x="582.998015" y="49.261091" style="fill: #2e6db4; stroke: #2e6db4"/>
     <use xlink:href="#mbcf155939b" x="597.197424" y="80.417455" style="fill: #2e6db4; stroke: #2e6db4"/>
     <use xlink:href="#mbcf155939b" x="374.524873" y="111.573818" style="fill: #2e6db4; stroke: #2e6db4"/>
     <use xlink:href="#mbcf155939b" x="597.197424" y="142.730182" style="fill: #2e6db4; stroke: #2e6db4"/>
     <use xlink:href="#mbcf155939b" x="597.197424" y="173.886545" style="fill: #2e6db4; stroke: #2e6db4"/>
     <use xlink:href="#mbcf155939b" x="569.204304" y="205.042909" style="fill: #2e6db4; stroke: #2e6db4"/>
     <use xlink:href="#mbcf155939b" x="569.204304" y="236.199273" style="fill: #2e6db4; stroke: #2e6db4"/>
    </g>
   </g>
   <g id="PathCollection_2">
    <defs>
     <path id="m46f175fed8" d="M -4.1833 4.1833 
L 4.1833 4.1833 
L 4.1833 -4.1833 
L -4.1833 -4.1833 
z
" style="stroke: #d04f3f"/>
    </defs>
    <g clip-path="url(#pfe833f5e50)">
     <use xlink:href="#m46f175fed8" x="369.346442" y="18.104727" style="fill: #d04f3f; stroke: #d04f3f"/>
     <use xlink:href="#m46f175fed8" x="597.197424" y="49.261091" style="fill: #d04f3f; stroke: #d04f3f"/>
     <use xlink:href="#m46f175fed8" x="597.197424" y="80.417455" style="fill: #d04f3f; stroke: #d04f3f"/>
     <use xlink:href="#m46f175fed8" x="352.257618" y="111.573818" style="fill: #d04f3f; stroke: #d04f3f"/>
     <use xlink:href="#m46f175fed8" x="597.197424" y="142.730182" style="fill: #d04f3f; stroke: #d04f3f"/>
     <use xlink:href="#m46f175fed8" x="597.197424" y="173.886545" style="fill: #d04f3f; stroke: #d04f3f"/>
     <use xlink:href="#m46f175fed8" x="554.599197" y="205.042909" style="fill: #d04f3f; stroke: #d04f3f"/>
     <use xlink:href="#m46f175fed8" x="575.898311" y="236.199273" style="fill: #d04f3f; stroke: #d04f3f"/>
    </g>
   </g>
   <g id="legend_1">
    <g id="PathCollection_3">
     <g>
      <use xlink:href="#mbcf155939b" x="225.221047" y="303.488235" style="fill: #2e6db4; stroke: #2e6db4"/>
     </g>
    </g>
    <g id="text_16">
     <!-- Large-positive-residual set Jaccard vs primary spline df=4 -->
     <g transform="translate(241.421047 305.850735) scale(0.09 -0.09)">
      <defs>
       <path id="Tinos-67" d="M 2719 2009 
Q 2719 1503 2416 1243 
Q 2113 984 1544 984 
Q 1288 984 1069 1031 
L 872 622 
Q 881 569 993 522 
Q 1106 475 1275 475 
L 2144 475 
Q 2619 475 2848 269 
Q 3078 63 3078 -300 
Q 3078 -628 2895 -872 
Q 2713 -1116 2359 -1248 
Q 2006 -1381 1503 -1381 
Q 903 -1381 589 -1197 
Q 275 -1013 275 -672 
Q 275 -506 387 -345 
Q 500 -184 800 31 
Q 622 91 500 234 
Q 378 378 378 544 
L 872 1100 
Q 378 1331 378 2009 
Q 378 2491 683 2753 
Q 988 3016 1569 3016 
Q 1684 3016 1865 2992 
Q 2047 2969 2144 2938 
L 2834 3284 
L 2944 3150 
L 2509 2700 
Q 2719 2466 2719 2009 
z
M 2591 -397 
Q 2591 -219 2481 -119 
Q 2372 -19 2150 -19 
L 1013 -19 
Q 881 -131 798 -304 
Q 716 -478 716 -628 
Q 716 -897 909 -1014 
Q 1103 -1131 1503 -1131 
Q 2025 -1131 2308 -937 
Q 2591 -744 2591 -397 
z
M 1550 1222 
Q 1891 1222 2033 1417 
Q 2175 1613 2175 2009 
Q 2175 2425 2028 2601 
Q 1881 2778 1556 2778 
Q 1228 2778 1075 2600 
Q 922 2422 922 2009 
Q 922 1597 1072 1409 
Q 1222 1222 1550 1222 
z
" transform="scale(0.015625)"/>
       <path id="Tinos-73" d="M 2259 825 
Q 2259 388 1982 162 
Q 1706 -63 1166 -63 
Q 947 -63 683 -17 
Q 419 28 269 84 
L 269 806 
L 409 806 
L 563 397 
Q 797 184 1172 184 
Q 1778 184 1778 703 
Q 1778 1084 1300 1247 
L 1022 1338 
Q 706 1441 562 1547 
Q 419 1653 341 1808 
Q 263 1963 263 2181 
Q 263 2569 527 2792 
Q 791 3016 1241 3016 
Q 1563 3016 2047 2919 
L 2047 2278 
L 1900 2278 
L 1769 2619 
Q 1603 2766 1247 2766 
Q 994 2766 861 2641 
Q 728 2516 728 2303 
Q 728 2125 848 2003 
Q 969 1881 1213 1800 
Q 1672 1644 1812 1572 
Q 1953 1500 2051 1395 
Q 2150 1291 2204 1156 
Q 2259 1022 2259 825 
z
" transform="scale(0.015625)"/>
      </defs>
      <use xlink:href="#Tinos-4c"/>
      <use xlink:href="#Tinos-61" transform="translate(61.083984 0)"/>
      <use xlink:href="#Tinos-72" transform="translate(105.46875 0)"/>
      <use xlink:href="#Tinos-67" transform="translate(138.769531 0)"/>
      <use xlink:href="#Tinos-65" transform="translate(188.769531 0)"/>
      <use xlink:href="#Tinos-2d" transform="translate(233.154297 0)"/>
      <use xlink:href="#Tinos-70" transform="translate(266.455078 0)"/>
      <use xlink:href="#Tinos-6f" transform="translate(316.455078 0)"/>
      <use xlink:href="#Tinos-73" transform="translate(366.455078 0)"/>
      <use xlink:href="#Tinos-69" transform="translate(405.371094 0)"/>
      <use xlink:href="#Tinos-74" transform="translate(433.154297 0)"/>
      <use xlink:href="#Tinos-69" transform="translate(460.9375 0)"/>
      <use xlink:href="#Tinos-76" transform="translate(488.720703 0)"/>
      <use xlink:href="#Tinos-65" transform="translate(538.720703 0)"/>
      <use xlink:href="#Tinos-2d" transform="translate(583.105469 0)"/>
      <use xlink:href="#Tinos-72" transform="translate(616.40625 0)"/>
      <use xlink:href="#Tinos-65" transform="translate(649.707031 0)"/>
      <use xlink:href="#Tinos-73" transform="translate(694.091797 0)"/>
      <use xlink:href="#Tinos-69" transform="translate(733.007812 0)"/>
      <use xlink:href="#Tinos-64" transform="translate(760.791016 0)"/>
      <use xlink:href="#Tinos-75" transform="translate(810.791016 0)"/>
      <use xlink:href="#Tinos-61" transform="translate(860.791016 0)"/>
      <use xlink:href="#Tinos-6c" transform="translate(905.175781 0)"/>
      <use xlink:href="#Tinos-20" transform="translate(932.958984 0)"/>
      <use xlink:href="#Tinos-73" transform="translate(957.958984 0)"/>
      <use xlink:href="#Tinos-65" transform="translate(996.875 0)"/>
      <use xlink:href="#Tinos-74" transform="translate(1041.259766 0)"/>
      <use xlink:href="#Tinos-20" transform="translate(1069.042969 0)"/>
      <use xlink:href="#Tinos-4a" transform="translate(1094.042969 0)"/>
      <use xlink:href="#Tinos-61" transform="translate(1132.958984 0)"/>
      <use xlink:href="#Tinos-63" transform="translate(1177.34375 0)"/>
      <use xlink:href="#Tinos-63" transform="translate(1221.728516 0)"/>
      <use xlink:href="#Tinos-61" transform="translate(1266.113281 0)"/>
      <use xlink:href="#Tinos-72" transform="translate(1310.498047 0)"/>
      <use xlink:href="#Tinos-64" transform="translate(1343.798828 0)"/>
      <use xlink:href="#Tinos-20" transform="translate(1393.798828 0)"/>
      <use xlink:href="#Tinos-76" transform="translate(1418.798828 0)"/>
      <use xlink:href="#Tinos-73" transform="translate(1468.798828 0)"/>
      <use xlink:href="#Tinos-20" transform="translate(1507.714844 0)"/>
      <use xlink:href="#Tinos-70" transform="translate(1532.714844 0)"/>
      <use xlink:href="#Tinos-72" transform="translate(1582.714844 0)"/>
      <use xlink:href="#Tinos-69" transform="translate(1616.015625 0)"/>
      <use xlink:href="#Tinos-6d" transform="translate(1643.798828 0)"/>
      <use xlink:href="#Tinos-61" transform="translate(1721.582031 0)"/>
      <use xlink:href="#Tinos-72" transform="translate(1765.966797 0)"/>
      <use xlink:href="#Tinos-79" transform="translate(1799.267578 0)"/>
      <use xlink:href="#Tinos-20" transform="translate(1849.267578 0)"/>
      <use xlink:href="#Tinos-73" transform="translate(1874.267578 0)"/>
      <use xlink:href="#Tinos-70" transform="translate(1913.183594 0)"/>
      <use xlink:href="#Tinos-6c" transform="translate(1963.183594 0)"/>
      <use xlink:href="#Tinos-69" transform="translate(1990.966797 0)"/>
      <use xlink:href="#Tinos-6e" transform="translate(2018.75 0)"/>
      <use xlink:href="#Tinos-65" transform="translate(2068.75 0)"/>
      <use xlink:href="#Tinos-20" transform="translate(2113.134766 0)"/>
      <use xlink:href="#Tinos-64" transform="translate(2138.134766 0)"/>
      <use xlink:href="#Tinos-66" transform="translate(2188.134766 0)"/>
      <use xlink:href="#Tinos-3d" transform="translate(2221.435547 0)"/>
      <use xlink:href="#Tinos-34" transform="translate(2277.832031 0)"/>
     </g>
    </g>
    <g id="PathCollection_4">
     <g>
      <use xlink:href="#m46f175fed8" x="225.221047" y="316.266829" style="fill: #d04f3f; stroke: #d04f3f"/>
     </g>
    </g>
    <g id="text_17">
     <!-- High-rate + large-positive-residual group Jaccard vs primary spline df=4 -->
     <g transform="translate(241.421047 318.629329) scale(0.09 -0.09)">
      <defs>
       <path id="Tinos-48" d="M 184 0 
L 184 166 
L 722 250 
L 722 3944 
L 184 4025 
L 184 4191 
L 1863 4191 
L 1863 4025 
L 1325 3944 
L 1325 2297 
L 3297 2297 
L 3297 3944 
L 2759 4025 
L 2759 4191 
L 4434 4191 
L 4434 4025 
L 3897 3944 
L 3897 250 
L 4434 166 
L 4434 0 
L 2759 0 
L 2759 166 
L 3297 250 
L 3297 2016 
L 1325 2016 
L 1325 250 
L 1863 166 
L 1863 0 
L 184 0 
z
" transform="scale(0.015625)"/>
       <path id="Tinos-2b" d="M 1966 1966 
L 1966 634 
L 1644 634 
L 1644 1966 
L 319 1966 
L 319 2284 
L 1644 2284 
L 1644 3616 
L 1966 3616 
L 1966 2284 
L 3297 2284 
L 3297 1966 
L 1966 1966 
z
" transform="scale(0.015625)"/>
      </defs>
      <use xlink:href="#Tinos-48"/>
      <use xlink:href="#Tinos-69" transform="translate(72.216797 0)"/>
      <use xlink:href="#Tinos-67" transform="translate(100 0)"/>
      <use xlink:href="#Tinos-68" transform="translate(150 0)"/>
      <use xlink:href="#Tinos-2d" transform="translate(200 0)"/>
      <use xlink:href="#Tinos-72" transform="translate(233.300781 0)"/>
      <use xlink:href="#Tinos-61" transform="translate(266.601562 0)"/>
      <use xlink:href="#Tinos-74" transform="translate(310.986328 0)"/>
      <use xlink:href="#Tinos-65" transform="translate(338.769531 0)"/>
      <use xlink:href="#Tinos-20" transform="translate(383.154297 0)"/>
      <use xlink:href="#Tinos-2b" transform="translate(408.154297 0)"/>
      <use xlink:href="#Tinos-20" transform="translate(464.550781 0)"/>
      <use xlink:href="#Tinos-6c" transform="translate(489.550781 0)"/>
      <use xlink:href="#Tinos-61" transform="translate(517.333984 0)"/>
      <use xlink:href="#Tinos-72" transform="translate(561.71875 0)"/>
      <use xlink:href="#Tinos-67" transform="translate(595.019531 0)"/>
      <use xlink:href="#Tinos-65" transform="translate(645.019531 0)"/>
      <use xlink:href="#Tinos-2d" transform="translate(689.404297 0)"/>
      <use xlink:href="#Tinos-70" transform="translate(722.705078 0)"/>
      <use xlink:href="#Tinos-6f" transform="translate(772.705078 0)"/>
      <use xlink:href="#Tinos-73" transform="translate(822.705078 0)"/>
      <use xlink:href="#Tinos-69" transform="translate(861.621094 0)"/>
      <use xlink:href="#Tinos-74" transform="translate(889.404297 0)"/>
      <use xlink:href="#Tinos-69" transform="translate(917.1875 0)"/>
      <use xlink:href="#Tinos-76" transform="translate(944.970703 0)"/>
      <use xlink:href="#Tinos-65" transform="translate(994.970703 0)"/>
      <use xlink:href="#Tinos-2d" transform="translate(1039.355469 0)"/>
      <use xlink:href="#Tinos-72" transform="translate(1072.65625 0)"/>
      <use xlink:href="#Tinos-65" transform="translate(1105.957031 0)"/>
      <use xlink:href="#Tinos-73" transform="translate(1150.341797 0)"/>
      <use xlink:href="#Tinos-69" transform="translate(1189.257812 0)"/>
      <use xlink:href="#Tinos-64" transform="translate(1217.041016 0)"/>
      <use xlink:href="#Tinos-75" transform="translate(1267.041016 0)"/>
      <use xlink:href="#Tinos-61" transform="translate(1317.041016 0)"/>
      <use xlink:href="#Tinos-6c" transform="translate(1361.425781 0)"/>
      <use xlink:href="#Tinos-20" transform="translate(1389.208984 0)"/>
      <use xlink:href="#Tinos-67" transform="translate(1414.208984 0)"/>
      <use xlink:href="#Tinos-72" transform="translate(1464.208984 0)"/>
      <use xlink:href="#Tinos-6f" transform="translate(1497.509766 0)"/>
      <use xlink:href="#Tinos-75" transform="translate(1547.509766 0)"/>
      <use xlink:href="#Tinos-70" transform="translate(1597.509766 0)"/>
      <use xlink:href="#Tinos-20" transform="translate(1647.509766 0)"/>
      <use xlink:href="#Tinos-4a" transform="translate(1672.509766 0)"/>
      <use xlink:href="#Tinos-61" transform="translate(1711.425781 0)"/>
      <use xlink:href="#Tinos-63" transform="translate(1755.810547 0)"/>
      <use xlink:href="#Tinos-63" transform="translate(1800.195312 0)"/>
      <use xlink:href="#Tinos-61" transform="translate(1844.580078 0)"/>
      <use xlink:href="#Tinos-72" transform="translate(1888.964844 0)"/>
      <use xlink:href="#Tinos-64" transform="translate(1922.265625 0)"/>
      <use xlink:href="#Tinos-20" transform="translate(1972.265625 0)"/>
      <use xlink:href="#Tinos-76" transform="translate(1997.265625 0)"/>
      <use xlink:href="#Tinos-73" transform="translate(2047.265625 0)"/>
      <use xlink:href="#Tinos-20" transform="translate(2086.181641 0)"/>
      <use xlink:href="#Tinos-70" transform="translate(2111.181641 0)"/>
      <use xlink:href="#Tinos-72" transform="translate(2161.181641 0)"/>
      <use xlink:href="#Tinos-69" transform="translate(2194.482422 0)"/>
      <use xlink:href="#Tinos-6d" transform="translate(2222.265625 0)"/>
      <use xlink:href="#Tinos-61" transform="translate(2300.048828 0)"/>
      <use xlink:href="#Tinos-72" transform="translate(2344.433594 0)"/>
      <use xlink:href="#Tinos-79" transform="translate(2377.734375 0)"/>
      <use xlink:href="#Tinos-20" transform="translate(2427.734375 0)"/>
      <use xlink:href="#Tinos-73" transform="translate(2452.734375 0)"/>
      <use xlink:href="#Tinos-70" transform="translate(2491.650391 0)"/>
      <use xlink:href="#Tinos-6c" transform="translate(2541.650391 0)"/>
      <use xlink:href="#Tinos-69" transform="translate(2569.433594 0)"/>
      <use xlink:href="#Tinos-6e" transform="translate(2597.216797 0)"/>
      <use xlink:href="#Tinos-65" transform="translate(2647.216797 0)"/>
      <use xlink:href="#Tinos-20" transform="translate(2691.601562 0)"/>
      <use xlink:href="#Tinos-64" transform="translate(2716.601562 0)"/>
      <use xlink:href="#Tinos-66" transform="translate(2766.601562 0)"/>
      <use xlink:href="#Tinos-3d" transform="translate(2799.902344 0)"/>
      <use xlink:href="#Tinos-34" transform="translate(2856.298828 0)"/>
     </g>
    </g>
   </g>
  </g>
 </g>
 <defs>
  <clipPath id="pfe833f5e50">
   <rect x="107.317813" y="7.2" width="504.576" height="239.904"/>
  </clipPath>
 </defs>
</svg>
